<svg xmlns="http://www.w3.org/2000/svg" viewBox="0 0 190 75"><path d="M45.42,2.64,15.79,73.82.9,74.15V72.73l14-.31L44,2.62Zm-27.17,0h-1L14.57,38.15l1.25-3.34ZM52.43,60.87c-1.51-16.81,8.21-42.41,8.21-42.41,2.29-5.28,5.24-4.78,5.24-4.78a2.23,2.23,0,0,1,.81.49A3,3,0,0,0,65,12.28s-2.94-.5-5.24,4.78c0,0-9.82,25.87-8.18,42.68A5.1,5.1,0,0,0,52.43,60.87ZM80.62,8.17c7.7,13.41-1.23,38.38-1.23,38.38C65.8,82.48,44.85,72.26,44.85,72.26a14.79,14.79,0,0,1-6-4.94,15,15,0,0,0,6.87,6.34S66.7,83.87,80.28,48C80.28,48,89.86,21.16,80.62,8.17ZM96.46,72.9l-15.22-.21-.3,1.38,16.42.22,13.35-61.74h-1.2Zm43.4-1a55.19,55.19,0,0,1-11.52,1.6c-8.2,0-13-3.7-15.67-7.58,2.53,4.34,7.38,9,16.57,9a55.15,55.15,0,0,0,11.51-1.6L143,62.85a13,13,0,0,1-1.32.59ZM129.17,60.11c-.1-.19-.2-.38-.3-.59,0-.37-3.31-4.19,1.35-23.18,0,0,2.57-12.46,10.29-20.72,0,0,5.14-5.18,13.6-2.59l2.2-10.48a10.37,10.37,0,0,0-1.12-.33l-2,9.41c-8.45-2.59-13.6,2.59-13.6,2.59-7.72,8.26-10.29,20.72-10.29,20.72-4.65,19-1.35,22.82-1.35,23.19A10.09,10.09,0,0,0,129.17,60.11Zm44.62,12.54-27.47.09-.3,1.4,28.67-.09L176.89,64l-1.19,0Zm6-29.42H168.09l-4,19,1.19,0L169,44.63h11.67l2.2-10.36h-1.19Zm9.06-40.68L187,11.26l-11.94.06-4.6,21.46h1.2L176,12.72l11.95-.06L190,2.55ZM91.24,2.7h-.47l-.32,1.4H91ZM94,9.79,95.19,4l1.66,0,.6-2.65H96.24L96,2.65l-1.67,0L93.12,8.4H91.27L91,9.78Zm12.9-8.36h-1.19l-1.49,7h-1.73l-.31,1.39,2.94,0Zm-4.85,0h-1.19l-.27,1.34h1.18Zm-1.74,8.38.67-3h.65l.3-1.38-1.85,0-.66,3H97.7l-.31,1.39Zm12.26-3.16h.92L114,4.44l-1.18,0-.16.8h-2.36l-.19.87,2.62,0Zm.35-3h1.39l.49-2.2h-1.21l-.18.8-2.54,0-.17.77,2.34,0Zm.64,3.91-1.16,0-.16.84h-4.52l-.31,1.4h5.73Z" style="fill:#690e06"/><path d="M44,2.62,14.9,72.42l-14,.31-.9,0L.16,1.07l17.19.17-.1,1.39L14.57,38.15l1.25-3.34L28.48,1.07l16,.17ZM79.39,46.55C65.8,82.48,44.85,72.26,44.85,72.26a14.79,14.79,0,0,1-6-4.94c-9-12.59-.41-38.73-.41-38.73C48.61-1.23,67.76.09,67.76.09,74.19.91,78.22,4,80.62,8.17,88.32,21.58,79.39,46.55,79.39,46.55Zm-27,14.32c.87.85,2.28,1.53,3.88-.48,0,0,5.73-3.13,10.8-39,0,0,.65-4.46-.42-7.17A3,3,0,0,0,65,12.28s-2.94-.5-5.24,4.78c0,0-9.82,25.87-8.18,42.68A5.1,5.1,0,0,0,52.43,60.87Zm57.39-49.72-16.64.11L80,72.67l1.2,0,15.22.21,13.05-60.34Zm19.35,49a10.09,10.09,0,0,1-1.2-2c0-.37-3.3-4.2,1.35-23.19,0,0,2.57-12.46,10.29-20.72,0,0,5.15-5.18,13.6-2.59l2-9.41.22-1.07S140.1-4.4,123.93,10c0,0-18.74,16.77-14.82,47.11A21.5,21.5,0,0,0,112.67,66c2.72,3.88,7.47,7.58,15.67,7.58a55.19,55.19,0,0,0,11.52-1.6l1.78-8.5.42-2S133.71,66,129.17,60.11Zm31.39-59L145.12,72.74h1.2l27.47-.09,1.91-8.72.29-1.36-10.75-.34-1.19,0,4-19h11.67l1.91-9,.3-1.39-10.29-.08h-1.2l4.6-21.46L187,11.26l1.8-8.71.28-1.4ZM91.24,2.7,91,4.1,90.1,8.38h3l1.17-5.8,1.67,0,.28-1.25L96.55,0H90.17l-.62,2.7h1.69ZM97.7,8.37h1.74l.66-3,1.85,0-.3,1.38-.34,1.53h2.93l1.49-7L106,0h-2.89l-.63,2.73h-1.9l.27-1.34.29-1.4H98.32L96.5,8.36Zm14.56,0,.16-.84.17-.9.1-.48-2.62,0,.19-.87h2.36l.16-.8.16-.79.12-.59-2.34,0,.17-.77,2.54,0,.18-.8.32-1.4h-5.56l-1.83,8.34h5.72Z" style="fill:#fff"/></svg>